<svg width="28" height="28" viewBox="0 0 28 28" fill="none" xmlns="http://www.w3.org/2000/svg">
<rect x="1" y="1" width="26" height="26" stroke="white" stroke-width="0.5" stroke-linecap="round" stroke-linejoin="round"/>
<path d="M6.232 11.62C6.16667 11.648 6.106 11.662 6.05 11.662C5.92867 11.662 5.826 11.6247 5.742 11.55C5.66733 11.466 5.63 11.3633 5.63 11.242C5.63 11.0367 5.71867 10.9013 5.896 10.836L8.038 10.122C8.206 10.0753 8.304 10.052 8.332 10.052C8.45333 10.052 8.55133 10.094 8.626 10.178C8.71 10.2527 8.752 10.3507 8.752 10.472V20.58C8.752 20.7013 8.71 20.804 8.626 20.888C8.55133 20.9627 8.45333 21 8.332 21C8.21067 21 8.108 20.9627 8.024 20.888C7.94 20.804 7.898 20.7013 7.898 20.58V11.074L6.232 11.62ZM15.8523 14.882C16.403 15.134 16.8416 15.5167 17.1683 16.03C17.495 16.534 17.6583 17.0987 17.6583 17.724C17.6583 18.3587 17.5136 18.9327 17.2243 19.446C16.935 19.9593 16.5383 20.3653 16.0343 20.664C15.5396 20.9533 14.9843 21.098 14.3683 21.098C13.743 21.098 13.1783 20.9533 12.6743 20.664C12.1796 20.3747 11.7876 19.978 11.4983 19.474C11.209 18.9607 11.0643 18.3913 11.0643 17.766C11.0643 17.122 11.2276 16.5433 11.5543 16.03C11.881 15.5167 12.3196 15.134 12.8703 14.882C12.5063 14.6393 12.2216 14.322 12.0163 13.93C11.811 13.538 11.7083 13.104 11.7083 12.628C11.7083 12.152 11.825 11.718 12.0583 11.326C12.2916 10.934 12.6136 10.626 13.0243 10.402C13.435 10.178 13.8923 10.066 14.3963 10.066C14.891 10.066 15.3343 10.178 15.7263 10.402C16.1276 10.6167 16.4403 10.92 16.6643 11.312C16.8976 11.6947 17.0143 12.124 17.0143 12.6C17.0143 13.076 16.907 13.5147 16.6923 13.916C16.487 14.3173 16.207 14.6393 15.8523 14.882ZM12.5063 12.656C12.5063 13.1973 12.6836 13.6453 13.0383 14C13.393 14.3547 13.8363 14.532 14.3683 14.532C14.891 14.532 15.3296 14.35 15.6843 13.986C16.039 13.6127 16.2163 13.1507 16.2163 12.6C16.2163 12.1053 16.039 11.69 15.6843 11.354C15.3296 11.018 14.891 10.85 14.3683 10.85C13.8363 10.85 13.393 11.0227 13.0383 11.368C12.6836 11.7133 12.5063 12.1427 12.5063 12.656ZM16.7763 17.738C16.7763 17.2807 16.669 16.87 16.4543 16.506C16.249 16.1327 15.9596 15.8433 15.5863 15.638C15.2223 15.4233 14.8163 15.316 14.3683 15.316C13.911 15.316 13.4956 15.4233 13.1223 15.638C12.7583 15.8527 12.469 16.1513 12.2543 16.534C12.049 16.9073 11.9463 17.3273 11.9463 17.794C11.9463 18.27 12.049 18.704 12.2543 19.096C12.469 19.4787 12.7583 19.782 13.1223 20.006C13.4956 20.23 13.911 20.342 14.3683 20.342C14.8256 20.342 15.2363 20.23 15.6003 20.006C15.9643 19.7727 16.249 19.46 16.4543 19.068C16.669 18.6667 16.7763 18.2233 16.7763 17.738Z" fill="white"/>
<path d="M21 7V11" stroke="white" stroke-linecap="round" stroke-linejoin="round"/>
<path d="M19 9H23" stroke="white" stroke-linecap="round" stroke-linejoin="round"/>
</svg>
