<svg width="180" height="32" viewBox="0 0 180 32" fill="none" xmlns="http://www.w3.org/2000/svg">
<path d="M8.88438 7.17969V23C10.3219 23.0469 11.6109 23.0703 12.7516 23.0703C15.4703 23.0859 17.3922 21.9609 18.5172 19.6953C19.1422 18.4141 19.4547 16.8906 19.4547 15.125C19.4547 11.6719 18.4625 9.3125 16.4781 8.04688C15.4625 7.42188 14.2359 7.10938 12.7984 7.10938C12.3141 7.10938 11.525 7.125 10.4313 7.15625C9.75938 7.17187 9.24375 7.17969 8.88438 7.17969ZM12.7516 21.6875C11.7828 21.6875 11.0172 21.6797 10.4547 21.6641V8.51562C11.0328 8.5 11.8141 8.49219 12.7984 8.49219C15.1422 8.49219 16.6656 9.69531 17.3688 12.1016C17.6344 12.9922 17.7672 14 17.7672 15.125C17.7672 18.1094 16.9234 20.0938 15.2359 21.0781C14.5484 21.4844 13.7203 21.6875 12.7516 21.6875ZM26.05 23V16.2969C26.05 14.7656 26.4719 13.6562 27.3156 12.9688C27.7375 12.6406 28.1984 12.4766 28.6984 12.4766C28.9953 12.4766 29.2922 12.5234 29.5891 12.6172L29.7766 11.1641C29.5422 11.1016 29.2922 11.0703 29.0266 11.0703C27.7297 11.0703 26.7531 11.7266 26.0969 13.0391C26.0656 13.1172 26.0344 13.1875 26.0031 13.25L25.9563 11.2578H24.5266V23H26.05ZM35.4813 23V11.2812H33.9578V23H35.4813ZM35.8094 7.88281C35.8094 7.25781 35.5516 6.875 35.0359 6.73438C34.9422 6.70312 34.8406 6.6875 34.7313 6.6875C34.1844 6.6875 33.8406 6.95313 33.7 7.48438C33.6688 7.625 33.6531 7.75781 33.6531 7.88281C33.6531 8.50781 33.8953 8.89844 34.3797 9.05469C34.5047 9.08594 34.6219 9.10156 34.7313 9.10156C35.2625 9.10156 35.6063 8.83594 35.7625 8.30469C35.7938 8.16406 35.8094 8.02344 35.8094 7.88281ZM50.7016 21.9922C50.1547 22.0547 49.8266 21.8516 49.7172 21.3828C49.6859 21.1953 49.6703 20.9766 49.6703 20.7266V14.9609C49.6703 13.1016 49.0219 11.8984 47.725 11.3516C47.2875 11.1641 46.8031 11.0703 46.2719 11.0703C44.8031 11.0859 43.7172 11.7812 43.0141 13.1562L42.9906 11.2812H41.5375V23H43.0609V16.4141C43.0609 14.6328 43.5766 13.3984 44.6078 12.7109C45.0297 12.4297 45.4828 12.2891 45.9672 12.2891C47.0141 12.2891 47.6938 12.8438 48.0063 13.9531C48.1 14.3125 48.1469 14.7109 48.1469 15.1484V20.8672C48.1781 22.4141 48.8188 23.1953 50.0688 23.2109C50.3031 23.2109 50.5375 23.1875 50.7719 23.1406L50.7016 21.9922ZM63.7188 23.2109C63.9375 23.2109 64.1484 23.1875 64.3516 23.1406L64.2812 22.0156H64.0234C63.7891 22.0156 63.5703 21.8516 63.3672 21.5234C63.3359 21.4609 63.3047 21.3984 63.2734 21.3359L60.4375 16.3672L63.8828 11.2812H62.2891L59.4531 15.5469H57.2734V6.00781H55.75V23H57.2734V16.7891H59.1016L62.0078 21.9688C62.5703 22.75 63.1406 23.1641 63.7188 23.2109ZM80.4719 8.91406C80.4875 7.97656 80.8938 7.375 81.6906 7.10938C81.9094 7.03125 82.1359 6.99219 82.3703 6.99219C83.2297 6.99219 83.7766 7.375 84.0109 8.14063C84.0891 8.375 84.1281 8.625 84.1281 8.89063C84.1281 10 83.4563 11.1641 82.1125 12.3828C82.0656 12.4297 82.0188 12.4688 81.9719 12.5C80.9719 11.0156 80.4719 9.82031 80.4719 8.91406ZM82.7219 21.9453C81.3938 21.9297 80.3938 21.4453 79.7219 20.4922C79.3156 19.8984 79.1125 19.2109 79.1125 18.4297C79.1125 17.3984 79.7453 16.2969 81.0109 15.125C81.1828 14.9531 81.3703 14.7813 81.5734 14.6094C82.7453 16.125 84.3625 17.9297 86.425 20.0234C85.4719 21.2734 84.2375 21.9141 82.7219 21.9453ZM89.425 14.5625H87.9016C87.9016 16.1719 87.6672 17.5312 87.1984 18.6406C85.3703 16.75 83.8859 15.0703 82.7453 13.6016C84.1516 12.3984 85.0344 11.3281 85.3938 10.3906C85.5969 9.89063 85.6984 9.39063 85.6984 8.89063C85.6984 7.5625 85.1203 6.64063 83.9641 6.125C83.4797 5.90625 82.9484 5.79688 82.3703 5.79688C81.0422 5.79688 80.0656 6.24219 79.4406 7.13281C79.0969 7.63281 78.925 8.23438 78.925 8.9375C78.9406 10.1563 79.5656 11.6875 80.8 13.5313C79.4719 14.6563 78.5891 15.5859 78.1516 16.3203C77.7297 17.0234 77.5188 17.7344 77.5188 18.4531C77.5188 20.2031 78.2063 21.5156 79.5813 22.3906C80.4563 22.9375 81.4563 23.2109 82.5813 23.2109C84.5188 23.1953 86.1281 22.4609 87.4094 21.0078C88.3781 21.9766 89.0813 22.6719 89.5188 23.0938L90.5734 22.0625C89.5891 21.0781 88.8234 20.3047 88.2766 19.7422C89.0422 18.3047 89.425 16.5781 89.425 14.5625ZM113.209 18.8516C113.209 17.2734 112.506 16.0391 111.1 15.1484C110.866 14.9922 110.092 14.5938 108.78 13.9531C107.608 13.375 106.873 12.7734 106.577 12.1484C106.42 11.8203 106.342 11.4609 106.342 11.0703C106.342 9.94531 106.819 9.14063 107.772 8.65625C108.225 8.42188 108.702 8.30469 109.202 8.30469C110.342 8.30469 111.217 8.76563 111.827 9.6875C111.889 9.79688 111.944 9.89844 111.991 9.99219L113.233 9.33594C112.717 8.11719 111.741 7.35938 110.303 7.0625C109.975 7 109.639 6.96875 109.295 6.96875C107.873 6.96875 106.717 7.42969 105.827 8.35156C105.092 9.11719 104.725 10.0469 104.725 11.1406C104.725 12.6563 105.397 13.8438 106.741 14.7031C106.975 14.8438 107.748 15.2344 109.061 15.875C110.248 16.4688 111.006 17.0938 111.334 17.75C111.506 18.125 111.592 18.5312 111.592 18.9688C111.592 20.2188 111.084 21.0781 110.069 21.5469C109.647 21.7344 109.186 21.8281 108.686 21.8281C107.483 21.8125 106.287 21.4141 105.1 20.6328L104.397 21.8047C105.709 22.7422 107.116 23.2109 108.616 23.2109C110.256 23.2109 111.506 22.6562 112.366 21.5469C112.928 20.8125 113.209 19.9141 113.209 18.8516ZM122.195 21.9453C121.461 21.9297 120.727 21.7344 119.992 21.3594V16.1797C119.992 14.5547 120.484 13.4141 121.469 12.7578C121.891 12.4766 122.336 12.3359 122.805 12.3359C123.773 12.3359 124.531 12.8438 125.078 13.8594C125.469 14.5938 125.664 15.5078 125.664 16.6016C125.664 18.8984 125.094 20.4844 123.953 21.3594C123.438 21.75 122.852 21.9453 122.195 21.9453ZM119.969 27.7812V22.8125C120.719 23.0781 121.484 23.2109 122.266 23.2109C124 23.2109 125.328 22.4219 126.25 20.8438C126.922 19.6875 127.258 18.2656 127.258 16.5781C127.258 14.4063 126.641 12.8281 125.406 11.8438C124.734 11.3281 123.977 11.0703 123.133 11.0703C121.773 11.0859 120.711 11.7344 119.945 13.0156L119.898 11.2813H118.469L118.445 27.7812H119.969ZM140.158 22.2266L139.689 21.1484C138.658 21.6641 137.681 21.9219 136.759 21.9219C135.213 21.9219 134.142 21.1797 133.548 19.6953C133.283 19.0234 133.142 18.25 133.127 17.375H140.416V16.7891C140.384 12.9922 138.97 11.0859 136.173 11.0703C134.517 11.0703 133.267 11.8125 132.423 13.2969C131.83 14.3281 131.533 15.5938 131.533 17.0938C131.533 19.6875 132.322 21.4844 133.9 22.4844C134.666 22.9688 135.556 23.2109 136.572 23.2109C137.791 23.1953 138.986 22.8672 140.158 22.2266ZM136.15 12.3125C137.509 12.3125 138.361 13.0938 138.705 14.6563C138.798 15.1094 138.845 15.6016 138.845 16.1328L133.173 16.1563C133.377 14.1406 134.072 12.9063 135.259 12.4531C135.541 12.3594 135.838 12.3125 136.15 12.3125ZM152.542 23.2109C152.823 23.2109 153.089 23.1875 153.339 23.1406L153.269 21.9922C153.175 22.0078 153.058 22.0156 152.917 22.0156C152.339 22.0156 151.995 21.7344 151.886 21.1719C151.855 20.9688 151.839 20.7109 151.839 20.3984V14.6563C151.839 12.9844 151.175 11.8828 149.847 11.3516C149.362 11.1641 148.831 11.0703 148.253 11.0703C146.909 11.0859 145.628 11.4688 144.409 12.2188L144.995 13.3672C146.136 12.6953 147.152 12.3594 148.042 12.3594C149.261 12.3594 149.987 12.9141 150.222 14.0234C150.269 14.2422 150.292 14.4766 150.292 14.7266V16.2969C149.808 16.25 149.323 16.2266 148.839 16.2266C146.761 16.2266 145.316 16.7969 144.503 17.9375C144.144 18.4688 143.964 19.0547 143.964 19.6953C143.964 21.2578 144.566 22.3203 145.769 22.8828C146.253 23.1016 146.792 23.2109 147.386 23.2109C148.511 23.2109 149.456 22.7734 150.222 21.8984C150.331 21.7578 150.425 21.625 150.503 21.5C150.769 22.6094 151.448 23.1797 152.542 23.2109ZM147.714 21.9453C146.495 21.9453 145.784 21.3984 145.581 20.3047C145.55 20.1016 145.534 19.8984 145.534 19.6953C145.566 18.1328 146.675 17.3438 148.862 17.3281C149.378 17.3281 149.855 17.3516 150.292 17.3984V19.0859C150.292 20.3516 149.8 21.2188 148.816 21.6875C148.456 21.8594 148.089 21.9453 147.714 21.9453ZM165.817 23.2109C166.036 23.2109 166.247 23.1875 166.45 23.1406L166.38 22.0156H166.122C165.888 22.0156 165.669 21.8516 165.466 21.5234C165.434 21.4609 165.403 21.3984 165.372 21.3359L162.536 16.3672L165.981 11.2813H164.388L161.552 15.5469H159.372V6.00781H157.848V23H159.372V16.7891H161.2L164.106 21.9688C164.669 22.75 165.239 23.1641 165.817 23.2109Z" fill="black"/>
<line y1="31.1976" x2="180" y2="31.1976" stroke="url(#paint0_diamond)" stroke-width="0.5"/>
<defs>
<radialGradient id="paint0_diamond" cx="0" cy="0" r="1" gradientUnits="userSpaceOnUse" gradientTransform="translate(90.0004 31.9473) rotate(53.0226) scale(53.2002 9185.74)">
<stop/>
<stop offset="0.00247837" stop-opacity="0.997522"/>
<stop offset="1" stop-opacity="0"/>
</radialGradient>
</defs>
</svg>
